<svg data-v-423bf9ae="" xmlns="http://www.w3.org/2000/svg" viewBox="0 0 494 90" class="iconLeftSlogan"><!----><!----><!----><g data-v-423bf9ae="" id="9668b151-aa79-450e-bf3c-887cfc40106c" fill="black" transform="matrix(4.285714577655423,0,0,4.285714577655423,105.50000172342499,-12.000000374657809)"><path d="M8.44 8.54C8.44 7.85 8.31 7.21 8.06 6.63C7.80 6.05 7.45 5.54 7.01 5.12C6.58 4.70 6.06 4.38 5.46 4.14C4.86 3.90 4.22 3.78 3.54 3.78L1.05 3.78L1.05 13.30L3.54 13.30C4.22 13.30 4.86 13.18 5.46 12.94C6.06 12.71 6.58 12.38 7.01 11.96C7.45 11.54 7.80 11.03 8.06 10.45C8.31 9.87 8.44 9.23 8.44 8.54ZM7.49 8.54C7.49 9.63 7.11 10.53 6.34 11.26C5.59 11.97 4.67 12.32 3.57 12.32L2.03 12.32L2.03 4.76L3.57 4.76C4.67 4.76 5.59 5.11 6.34 5.82C7.11 6.55 7.49 7.45 7.49 8.54ZM11.01 12.42C10.77 12.26 10.59 11.98 10.49 11.58L9.45 11.58C9.66 12.85 10.48 13.48 11.91 13.48C12.25 13.48 12.56 13.44 12.84 13.36C13.13 13.28 13.40 13.17 13.63 13.01C14.11 12.69 14.35 12.20 14.35 11.54C14.35 10.88 14.03 10.39 13.40 10.09C13.12 9.96 12.83 9.86 12.51 9.79C12.20 9.72 11.91 9.64 11.64 9.56C11.37 9.47 11.14 9.37 10.96 9.24C10.77 9.11 10.68 8.91 10.68 8.63C10.68 8.35 10.79 8.15 11.02 8.01C11.23 7.88 11.50 7.81 11.80 7.81C12.11 7.81 12.36 7.87 12.58 7.98C12.79 8.09 12.95 8.32 13.06 8.67L14.11 8.67C13.97 8.04 13.71 7.61 13.32 7.37C12.92 7.12 12.42 7.00 11.83 7.00C11.23 7.00 10.72 7.16 10.29 7.47C9.86 7.79 9.64 8.25 9.64 8.86C9.64 9.17 9.72 9.43 9.88 9.66C10.04 9.88 10.28 10.07 10.59 10.22C10.87 10.34 11.16 10.44 11.47 10.52C11.79 10.59 12.08 10.68 12.35 10.76C12.99 10.97 13.31 11.27 13.31 11.66C13.31 12.33 12.86 12.67 11.97 12.67C11.58 12.67 11.26 12.59 11.01 12.42ZM16.64 12.42C16.39 12.26 16.22 11.98 16.11 11.58L15.08 11.58C15.29 12.85 16.11 13.48 17.54 13.48C17.87 13.48 18.18 13.44 18.47 13.36C18.76 13.28 19.02 13.17 19.26 13.01C19.74 12.69 19.98 12.20 19.98 11.54C19.98 10.88 19.66 10.39 19.02 10.09C18.75 9.96 18.46 9.86 18.14 9.79C17.83 9.72 17.54 9.64 17.27 9.56C17.00 9.47 16.77 9.37 16.59 9.24C16.40 9.11 16.31 8.91 16.31 8.63C16.31 8.35 16.42 8.15 16.64 8.01C16.86 7.88 17.12 7.81 17.43 7.81C17.73 7.81 17.99 7.87 18.21 7.98C18.42 8.09 18.58 8.32 18.68 8.67L19.73 8.67C19.60 8.04 19.34 7.61 18.95 7.37C18.55 7.12 18.05 7.00 17.46 7.00C16.86 7.00 16.35 7.16 15.92 7.47C15.49 7.79 15.27 8.25 15.27 8.86C15.27 9.17 15.35 9.43 15.51 9.66C15.67 9.88 15.90 10.07 16.22 10.22C16.50 10.34 16.79 10.44 17.10 10.52C17.41 10.59 17.71 10.68 17.98 10.76C18.62 10.97 18.94 11.27 18.94 11.66C18.94 12.33 18.49 12.67 17.59 12.67C17.21 12.67 16.89 12.59 16.64 12.42ZM24.39 4.66L26.70 4.66L26.70 13.27L27.68 13.27L27.68 4.66L29.99 4.66L29.99 3.75L27.68 3.75L26.70 3.75L24.39 3.75ZM35.77 10.08C35.77 9.23 35.45 8.50 34.80 7.88C34.16 7.28 33.41 6.97 32.55 6.97C31.66 6.97 30.91 7.29 30.28 7.92C29.65 8.55 29.33 9.31 29.33 10.19C29.33 11.08 29.65 11.84 30.28 12.46C30.57 12.75 30.91 12.98 31.30 13.15C31.68 13.31 32.15 13.40 32.70 13.40C33.24 13.40 33.78 13.23 34.31 12.89C34.83 12.55 35.23 12.08 35.49 11.49L34.37 11.49C34.16 11.78 33.89 12.01 33.57 12.17C33.24 12.34 32.90 12.42 32.55 12.42C32.02 12.42 31.55 12.25 31.12 11.90C30.70 11.56 30.45 11.13 30.35 10.60L35.77 10.60ZM34.73 9.76L30.37 9.76C30.42 9.50 30.52 9.26 30.66 9.04C31.12 8.31 31.75 7.95 32.55 7.95C33.07 7.95 33.54 8.12 33.94 8.46C34.36 8.80 34.62 9.23 34.73 9.76ZM43.13 9.35C42.94 8.66 42.57 8.10 42.02 7.67C41.45 7.23 40.82 7.01 40.11 7.01C39.23 7.01 38.48 7.33 37.87 7.97C37.26 8.59 36.96 9.34 36.96 10.22C36.96 11.09 37.26 11.84 37.87 12.48C38.15 12.78 38.48 13.01 38.86 13.18C39.25 13.35 39.63 13.44 40.03 13.44C40.42 13.44 40.77 13.39 41.08 13.28C42.06 12.94 42.73 12.27 43.08 11.28L41.97 11.28C41.79 11.63 41.53 11.90 41.20 12.11C40.86 12.32 40.50 12.42 40.11 12.42C39.51 12.42 39.00 12.20 38.59 11.77C38.18 11.33 37.97 10.82 37.97 10.22C37.97 9.63 38.18 9.12 38.59 8.69C38.78 8.49 39.01 8.33 39.27 8.21C39.53 8.09 39.84 8.04 40.21 8.04C40.57 8.04 40.93 8.16 41.29 8.40C41.64 8.64 41.90 8.96 42.07 9.35ZM45.65 13.30L45.65 10.72C45.65 9.87 45.80 9.22 46.10 8.77C46.26 8.52 46.47 8.33 46.73 8.20C46.99 8.06 47.33 7.99 47.75 7.99C48.17 7.99 48.48 8.14 48.66 8.42C48.84 8.71 48.93 9.05 48.93 9.45L48.93 13.30L49.91 13.30L49.91 9.45C49.91 8.74 49.72 8.16 49.35 7.72C49.16 7.50 48.93 7.33 48.66 7.20C48.39 7.08 48.04 7.01 47.60 7.01C47.16 7.01 46.77 7.13 46.44 7.36C46.12 7.57 45.86 7.85 45.65 8.20L45.65 2.80L44.67 2.80L44.67 13.30ZM56.06 13.30L57.04 13.30L57.04 9.45C57.04 8.74 56.85 8.16 56.48 7.72C56.29 7.50 56.06 7.33 55.79 7.20C55.52 7.08 55.16 7.01 54.73 7.01C54.29 7.01 53.90 7.13 53.56 7.36C53.25 7.57 52.99 7.85 52.78 8.20L52.78 7.14L51.80 7.14L51.80 13.30L52.78 13.30L52.78 10.72C52.78 9.94 52.93 9.32 53.22 8.86C53.38 8.60 53.60 8.39 53.86 8.23C54.12 8.07 54.46 7.99 54.88 7.99C55.30 7.99 55.60 8.14 55.78 8.42C55.97 8.71 56.06 9.05 56.06 9.45ZM63.97 10.19C63.97 10.80 63.75 11.32 63.31 11.76C62.87 12.20 62.34 12.42 61.73 12.42C61.11 12.42 60.58 12.20 60.14 11.76C59.71 11.32 59.49 10.80 59.49 10.19C59.49 9.58 59.71 9.05 60.14 8.61C60.58 8.17 61.11 7.95 61.73 7.95C62.34 7.95 62.87 8.17 63.31 8.61C63.75 9.05 63.97 9.58 63.97 10.19ZM64.95 10.19C64.95 9.31 64.63 8.55 64.00 7.92C63.37 7.29 62.61 6.97 61.73 6.97C60.84 6.97 60.08 7.29 59.45 7.92C58.82 8.55 58.51 9.31 58.51 10.19C58.51 11.08 58.82 11.84 59.45 12.46C60.09 13.09 60.84 13.40 61.73 13.40C62.61 13.40 63.37 13.09 64.00 12.46C64.63 11.84 64.95 11.08 64.95 10.19ZM67.61 13.30L67.61 2.80L66.63 2.80L66.63 13.30ZM74.75 10.19C74.75 10.80 74.53 11.32 74.09 11.76C73.65 12.20 73.12 12.42 72.51 12.42C71.89 12.42 71.36 12.20 70.92 11.76C70.49 11.32 70.27 10.80 70.27 10.19C70.27 9.58 70.49 9.05 70.92 8.61C71.36 8.17 71.89 7.95 72.51 7.95C73.12 7.95 73.65 8.17 74.09 8.61C74.53 9.05 74.75 9.58 74.75 10.19ZM75.73 10.19C75.73 9.31 75.41 8.55 74.78 7.92C74.15 7.29 73.39 6.97 72.51 6.97C71.62 6.97 70.86 7.29 70.23 7.92C69.60 8.55 69.29 9.31 69.29 10.19C69.29 11.08 69.60 11.84 70.23 12.46C70.87 13.09 71.62 13.40 72.51 13.40C73.39 13.40 74.15 13.09 74.78 12.46C75.41 11.84 75.73 11.08 75.73 10.19ZM82.39 10.22C82.39 10.82 82.18 11.34 81.77 11.79C81.35 12.24 80.83 12.46 80.22 12.46C79.62 12.46 79.11 12.24 78.68 11.79C78.26 11.35 78.05 10.83 78.05 10.22C78.05 9.61 78.26 9.09 78.68 8.65C79.11 8.20 79.62 7.98 80.22 7.98C80.83 7.98 81.35 8.20 81.77 8.65C82.18 9.10 82.39 9.62 82.39 10.22ZM78.03 14.14L77.03 14.14C77.13 14.79 77.43 15.37 77.92 15.86C78.55 16.49 79.30 16.80 80.18 16.80C81.06 16.80 81.81 16.49 82.43 15.86C83.06 15.24 83.37 14.49 83.37 13.61L83.37 7.14L82.39 7.14L82.39 8.17C82.34 8.11 82.29 8.05 82.23 7.98C81.62 7.33 80.90 7.00 80.08 7.00C79.22 7.00 78.50 7.33 77.92 7.98C77.35 8.61 77.07 9.36 77.07 10.22C77.07 11.08 77.35 11.83 77.92 12.46C78.50 13.11 79.22 13.44 80.08 13.44C80.93 13.44 81.65 13.11 82.23 12.46C82.29 12.39 82.34 12.33 82.39 12.27L82.39 13.61C82.39 14.21 82.17 14.74 81.74 15.17C81.31 15.60 80.78 15.82 80.18 15.82C79.57 15.82 79.05 15.60 78.62 15.17C78.31 14.87 78.12 14.52 78.03 14.14ZM86.25 16.80L90.51 7.14L89.42 7.14L87.65 11.27L85.68 7.14L84.56 7.14L87.14 12.29L85.06 16.80Z"></path></g><!----><g data-v-423bf9ae="" id="51ac1764-0134-4fb1-a4b4-36904420967b" transform="matrix(2.8125,0,0,2.8125,0,0)" stroke="none" fill="black"><path d="M15.965 16.258l.707-.707 10.39 10.39-.707.707z"></path><path d="M4.935 26.357L26.018 5.274l.707.707L5.642 27.065z"></path><path d="M31 1v4.194h-4.194V1H31m1-1h-6.194v6.194H32V0zM31 26.806V31h-4.194v-4.194H31m1-1h-6.194V32H32v-6.194zM5.194 26.806V31H1v-4.194h4.194m1-1H0V32h6.194v-6.194z"></path></g><!----><g data-v-423bf9ae="" id="cde70384-e698-43ee-99b7-774f495a61f4" fill="black" transform="matrix(1.6025079808548837,0,0,1.6025079808548837,108.18916809348897,56.63473268618023)"><path d="M5.04 2.21L1.13 2.21L1.13 11.48L5.04 11.48C7.25 11.48 9.30 9.74 9.30 6.85C9.30 3.95 7.25 2.21 5.04 2.21ZM5.00 10.49L2.18 10.49L2.18 3.21L5.00 3.21C6.97 3.21 8.25 4.86 8.25 6.85C8.25 8.83 6.97 10.49 5.00 10.49ZM24.81 3.22L24.81 2.21L17.99 2.21L17.99 11.48L24.81 11.48L24.81 10.47L19.04 10.47L19.04 7.35L24.19 7.35L24.19 6.33L19.04 6.33L19.04 3.22ZM39.97 2.21L36.76 10.29L33.56 2.21L32.41 2.21L36.16 11.48L37.37 11.48L41.12 2.21ZM65.97 3.22L65.97 2.21L59.28 2.21L59.28 11.48L60.33 11.48L60.33 7.46L65.35 7.46L65.35 6.44L60.33 6.44L60.33 3.22ZM75.49 7.92L78.71 7.92L80.95 11.48L82.19 11.48L79.76 7.74C80.79 7.50 82.00 6.90 82.00 5.11C82.00 3.35 80.78 2.21 78.88 2.21L74.44 2.21L74.44 11.48L75.49 11.48ZM75.49 3.21L78.75 3.21C80.07 3.21 80.95 3.93 80.95 5.11C80.95 6.55 79.69 6.93 78.69 6.93L75.49 6.93ZM94.92 2.10C92.11 2.10 90.22 4.21 90.22 6.85C90.22 9.48 92.11 11.59 94.92 11.59C97.73 11.59 99.62 9.48 99.62 6.85C99.62 4.21 97.73 2.10 94.92 2.10ZM94.92 10.57C92.67 10.57 91.27 8.93 91.27 6.85C91.27 4.76 92.67 3.12 94.92 3.12C97.17 3.12 98.57 4.76 98.57 6.85C98.57 8.93 97.17 10.57 94.92 10.57ZM115.25 2.21L115.25 10.01L109.52 2.21L108.30 2.21L108.30 11.48L109.35 11.48L109.35 3.65L115.08 11.48L116.30 11.48L116.30 2.21ZM132.15 2.21L124.63 2.21L124.63 3.22L127.86 3.22L127.86 11.48L128.91 11.48L128.91 3.22L132.15 3.22ZM139.22 7.85L142.72 7.85L142.72 6.83L139.22 6.83ZM158.41 3.22L158.41 2.21L151.59 2.21L151.59 11.48L158.41 11.48L158.41 10.47L152.64 10.47L152.64 7.35L157.79 7.35L157.79 6.33L152.64 6.33L152.64 3.22ZM174.05 2.21L174.05 10.01L168.32 2.21L167.10 2.21L167.10 11.48L168.15 11.48L168.15 3.65L173.88 11.48L175.10 11.48L175.10 2.21ZM188.27 2.21L184.37 2.21L184.37 11.48L188.27 11.48C190.48 11.48 192.53 9.74 192.53 6.85C192.53 3.95 190.48 2.21 188.27 2.21ZM188.23 10.49L185.42 10.49L185.42 3.21L188.23 3.21C190.20 3.21 191.48 4.86 191.48 6.85C191.48 8.83 190.20 10.49 188.23 10.49Z"></path></g></svg>